<svg xmlns="http://www.w3.org/2000/svg" width="640" height="120" viewBox="0 0 640 120" role="img" aria-label="Alive configs trend">
<rect width="640" height="120" fill="#0d1117"/>
<polyline fill="none" stroke="#5b8def" stroke-width="2" points="4.0,88.0 9.3,102.0 14.6,98.9 19.9,102.0 25.2,102.0 30.6,89.6 35.9,102.0 41.2,100.4 46.5,102.0 51.8,100.4 57.1,102.0 62.4,102.0 67.7,92.7 73.0,102.0 78.4,100.4 83.7,102.0 89.0,102.0 94.3,100.4 99.6,102.0 104.9,97.3 110.2,102.0 115.5,100.4 120.8,102.0 126.2,95.8 131.5,102.0 136.8,94.2 142.1,102.0 147.4,84.9 152.7,94.2 158.0,89.6 163.3,92.7 168.6,86.4 173.9,91.1 179.3,94.2 184.6,102.0 189.9,91.1 195.2,102.0 200.5,100.4 205.8,102.0 211.1,100.4 216.4,102.0 221.7,94.2 227.1,102.0 232.4,102.0 237.7,102.0 243.0,102.0 248.3,100.4 253.6,102.0 258.9,98.9 264.2,102.0 269.5,102.0 274.9,102.0 280.2,102.0 285.5,95.8 290.8,102.0 296.1,102.0 301.4,102.0 306.7,102.0 312.0,102.0 317.3,102.0 322.7,102.0 328.0,100.4 333.3,102.0 338.6,102.0 343.9,100.4 349.2,102.0 354.5,102.0 359.8,102.0 365.1,100.4 370.5,102.0 375.8,102.0 381.1,102.0 386.4,102.0 391.7,102.0 397.0,102.0 402.3,102.0 407.6,102.0 412.9,102.0 418.3,102.0 423.6,102.0 428.9,100.4 434.2,102.0 439.5,102.0 444.8,102.0 450.1,100.4 455.4,102.0 460.7,102.0 466.1,102.0 471.4,98.9 476.7,102.0 482.0,102.0 487.3,102.0 492.6,102.0 497.9,102.0 503.2,102.0 508.5,102.0 513.8,102.0 519.2,102.0 524.5,102.0 529.8,102.0 535.1,102.0 540.4,102.0 545.7,102.0 551.0,102.0 556.3,102.0 561.6,100.4 567.0,102.0 572.3,102.0 577.6,102.0 582.9,102.0 588.2,98.9 593.5,102.0 598.8,102.0 604.1,102.0 609.4,102.0 614.8,102.0 620.1,102.0 625.4,102.0 630.7,102.0 636.0,102.0"/>
<polyline fill="none" stroke="#3fbf6f" stroke-width="2" points="4.0,63.1 9.3,91.1 14.6,60.0 19.9,84.9 25.2,89.6 30.6,63.1 35.9,83.3 41.2,64.7 46.5,92.7 51.8,74.0 57.1,80.2 62.4,92.7 67.7,92.7 73.0,97.3 78.4,86.4 83.7,98.9 89.0,97.3 94.3,83.3 99.6,94.2 104.9,94.2 110.2,100.4 115.5,74.0 120.8,95.8 126.2,22.7 131.5,58.4 136.8,61.6 142.1,81.8 147.4,69.3 152.7,86.4 158.0,38.2 163.3,86.4 168.6,41.3 173.9,64.7 179.3,92.7 184.6,74.0 189.9,94.2 195.2,72.4 200.5,94.2 205.8,92.7 211.1,81.8 216.4,88.0 221.7,86.4 227.1,94.2 232.4,55.3 237.7,89.6 243.0,88.0 248.3,55.3 253.6,80.2 258.9,39.8 264.2,78.7 269.5,97.3 274.9,72.4 280.2,94.2 285.5,63.1 290.8,94.2 296.1,55.3 301.4,78.7 306.7,56.9 312.0,84.9 317.3,72.4 322.7,89.6 328.0,49.1 333.3,80.2 338.6,81.8 343.9,66.2 349.2,92.7 354.5,67.8 359.8,95.8 365.1,72.4 370.5,98.9 375.8,84.9 381.1,95.8 386.4,97.3 391.7,64.7 397.0,84.9 402.3,78.7 407.6,92.7 412.9,92.7 418.3,95.8 423.6,94.2 428.9,88.0 434.2,95.8 439.5,84.9 444.8,95.8 450.1,77.1 455.4,91.1 460.7,88.0 466.1,97.3 471.4,61.6 476.7,81.8 482.0,86.4 487.3,66.2 492.6,89.6 497.9,60.0 503.2,102.0 508.5,55.3 513.8,100.4 519.2,47.6 524.5,56.9 529.8,72.4 535.1,88.0 540.4,95.8 545.7,67.8 551.0,77.1 556.3,78.7 561.6,39.8 567.0,53.8 572.3,18.0 577.6,92.7 582.9,67.8 588.2,81.8 593.5,91.1 598.8,78.7 604.1,91.1 609.4,92.7 614.8,91.1 620.1,97.3 625.4,78.7 630.7,98.9 636.0,67.8"/>
<text x="8" y="12" fill="#5b8def" font-size="10" font-family="monospace">blacklist: 0</text>
<text x="136" y="12" fill="#3fbf6f" font-size="10" font-family="monospace">whitelist: 22</text>
<text x="636" y="12" fill="#8b949e" font-size="10" text-anchor="end" font-family="monospace">max 54</text>
</svg>