<svg xmlns="http://www.w3.org/2000/svg" width="640" height="120" viewBox="0 0 640 120" role="img" aria-label="Alive configs trend">
<rect width="640" height="120" fill="#0d1117"/>
<polyline fill="none" stroke="#5b8def" stroke-width="2" points="4.0,52.0 9.3,43.0 14.6,46.3 19.9,32.2 25.2,31.2 30.6,56.7 35.9,65.7 41.2,79.8 46.5,47.3 51.8,82.2 57.1,55.3 62.4,28.9 67.7,18.0 73.0,52.0 78.4,19.4 83.7,26.5 89.0,25.6 94.3,54.8 99.6,53.9 104.9,50.1 110.2,50.1 115.5,47.3 120.8,43.5 126.2,69.4 131.5,72.3 136.8,53.4 142.1,38.3 147.4,40.7 152.7,44.0 158.0,54.3 163.3,44.0 168.6,38.8 173.9,46.8 179.3,45.4 184.6,36.4 189.9,38.3 195.2,37.8 200.5,47.7 205.8,54.8 211.1,82.2 216.4,44.9 221.7,57.6 227.1,52.0 232.4,52.9 237.7,33.1 243.0,35.5 248.3,45.8 253.6,40.2 258.9,52.9 264.2,47.7 269.5,36.9 274.9,38.8 280.2,102.0 285.5,60.0 290.8,84.1 296.1,86.4 301.4,101.5 306.7,86.9 312.0,101.5 317.3,88.3 322.7,100.6 328.0,90.2 333.3,100.6 338.6,90.2 343.9,100.1 349.2,92.1 354.5,101.1 359.8,93.0 365.1,94.9 370.5,101.1 375.8,96.3 381.1,100.1 386.4,96.3 391.7,101.5 397.0,101.1 402.3,98.2 407.6,100.6 412.9,97.8 418.3,97.8 423.6,100.1 428.9,97.8 434.2,101.5 439.5,97.8 444.8,100.6 450.1,98.7 455.4,97.3 460.7,100.6 466.1,97.3 471.4,97.3 476.7,99.2 482.0,97.3 487.3,101.1 492.6,97.3 497.9,101.5 503.2,97.3 508.5,97.8 513.8,102.0 519.2,97.3 524.5,102.0 529.8,97.8 535.1,100.6 540.4,97.8 545.7,99.6 551.0,97.8 556.3,97.8 561.6,100.6 567.0,97.8 572.3,102.0 577.6,97.8 582.9,102.0 588.2,97.8 593.5,97.8 598.8,100.6 604.1,97.8 609.4,101.1 614.8,97.8 620.1,102.0 625.4,97.8 630.7,98.2 636.0,102.0"/>
<polyline fill="none" stroke="#3fbf6f" stroke-width="2" points="4.0,102.0 9.3,102.0 14.6,102.0 19.9,102.0 25.2,102.0 30.6,102.0 35.9,102.0 41.2,102.0 46.5,102.0 51.8,102.0 57.1,102.0 62.4,102.0 67.7,101.5 73.0,102.0 78.4,102.0 83.7,101.5 89.0,102.0 94.3,102.0 99.6,102.0 104.9,102.0 110.2,102.0 115.5,102.0 120.8,102.0 126.2,102.0 131.5,102.0 136.8,102.0 142.1,102.0 147.4,102.0 152.7,101.5 158.0,101.5 163.3,102.0 168.6,102.0 173.9,102.0 179.3,102.0 184.6,102.0 189.9,102.0 195.2,102.0 200.5,102.0 205.8,102.0 211.1,102.0 216.4,102.0 221.7,102.0 227.1,102.0 232.4,102.0 237.7,102.0 243.0,101.5 248.3,101.1 253.6,101.5 258.9,100.6 264.2,101.5 269.5,101.1 274.9,102.0 280.2,99.2 285.5,102.0 290.8,102.0 296.1,102.0 301.4,97.3 306.7,102.0 312.0,80.8 317.3,94.0 322.7,95.4 328.0,99.6 333.3,97.3 338.6,98.2 343.9,93.0 349.2,99.2 354.5,82.7 359.8,93.0 365.1,99.2 370.5,86.9 375.8,94.0 381.1,97.3 386.4,99.6 391.7,100.1 397.0,99.6 402.3,99.6 407.6,100.6 412.9,100.1 418.3,95.4 423.6,92.1 428.9,97.8 434.2,99.2 439.5,101.5 444.8,100.6 450.1,101.5 455.4,101.5 460.7,94.0 466.1,100.6 471.4,99.6 476.7,83.1 482.0,97.3 487.3,96.8 492.6,100.6 497.9,96.8 503.2,97.3 508.5,98.7 513.8,94.0 519.2,98.2 524.5,88.8 529.8,94.9 535.1,90.7 540.4,98.2 545.7,97.3 551.0,99.6 556.3,99.2 561.6,94.4 567.0,99.2 572.3,93.0 577.6,99.6 582.9,94.4 588.2,96.8 593.5,97.3 598.8,92.1 604.1,97.3 609.4,91.6 614.8,101.5 620.1,99.2 625.4,101.5 630.7,101.5 636.0,99.6"/>
<text x="8" y="12" fill="#5b8def" font-size="10" font-family="monospace">blacklist: 0</text>
<text x="136" y="12" fill="#3fbf6f" font-size="10" font-family="monospace">whitelist: 5</text>
<text x="636" y="12" fill="#8b949e" font-size="10" text-anchor="end" font-family="monospace">max 178</text>
</svg>