<svg xmlns="http://www.w3.org/2000/svg" width="640" height="120" viewBox="0 0 640 120" role="img" aria-label="Alive configs trend">
<rect width="640" height="120" fill="#0d1117"/>
<polyline fill="none" stroke="#5b8def" stroke-width="2" points="4.0,83.4 18.0,59.2 32.1,43.1 46.1,88.9 60.2,83.4 74.2,82.4 88.3,88.9 102.3,78.9 116.4,89.9 130.4,88.9 144.4,57.7 158.5,80.4 172.5,89.4 186.6,87.4 200.6,79.4 214.7,80.4 228.7,94.5 242.8,92.4 256.8,84.4 270.8,89.9 284.9,90.9 298.9,46.2 313.0,46.2 327.0,51.2 341.1,92.4 355.1,82.4 369.2,47.7 383.2,40.6 397.2,40.1 411.3,44.7 425.3,50.7 439.4,79.9 453.4,44.2 467.5,79.4 481.5,73.3 495.6,72.3 509.6,57.2 523.6,19.5 537.7,90.4 551.7,66.3 565.8,39.1 579.8,41.6 593.9,70.3 607.9,70.8 622.0,69.3 636.0,71.3"/>
<polyline fill="none" stroke="#3fbf6f" stroke-width="2" points="4.0,82.4 18.0,62.8 32.1,65.8 46.1,86.9 60.2,86.9 74.2,84.4 88.3,95.5 102.3,85.4 116.4,95.5 130.4,89.9 144.4,62.3 158.5,86.9 172.5,89.4 186.6,85.4 200.6,81.9 214.7,83.9 228.7,97.0 242.8,92.9 256.8,87.9 270.8,98.5 284.9,95.5 298.9,28.6 313.0,54.2 327.0,61.8 341.1,93.4 355.1,78.4 369.2,45.7 383.2,38.1 397.2,18.0 411.3,37.6 425.3,49.7 439.4,82.4 453.4,35.6 467.5,75.8 481.5,77.4 495.6,72.8 509.6,64.3 523.6,42.1 537.7,89.4 551.7,72.3 565.8,42.1 579.8,35.1 593.9,76.9 607.9,76.9 622.0,79.9 636.0,76.9"/>
<text x="8" y="12" fill="#5b8def" font-size="10" font-family="monospace">blacklist: 61</text>
<text x="146" y="12" fill="#3fbf6f" font-size="10" font-family="monospace">whitelist: 50</text>
<text x="636" y="12" fill="#8b949e" font-size="10" text-anchor="end" font-family="monospace">max 167</text>
</svg>