<svg xmlns="http://www.w3.org/2000/svg" width="640" height="120" viewBox="0 0 640 120" role="img" aria-label="Alive configs trend">
<rect width="640" height="120" fill="#0d1117"/>
<polyline fill="none" stroke="#5b8def" stroke-width="2" points="4.0,79.7 9.3,80.0 14.6,79.0 19.9,80.4 25.2,52.7 30.6,53.4 35.9,49.9 41.2,58.1 46.5,27.9 51.8,93.1 57.1,59.8 62.4,89.9 67.7,55.9 73.0,87.8 78.4,90.3 83.7,69.0 89.0,89.6 94.3,83.2 99.6,84.3 104.9,92.8 110.2,93.1 115.5,97.0 120.8,96.0 126.2,79.0 131.5,98.1 136.8,95.3 142.1,89.9 147.4,89.2 152.7,98.8 158.0,97.0 163.3,82.2 168.6,94.6 173.9,72.9 179.3,74.0 184.6,64.4 189.9,75.1 195.2,65.1 200.5,70.8 205.8,72.2 211.1,77.9 216.4,65.1 221.7,72.9 227.1,64.8 232.4,67.6 237.7,71.5 243.0,63.7 248.3,96.7 253.6,66.2 258.9,69.7 264.2,77.5 269.5,74.7 274.9,59.1 280.2,63.0 285.5,56.6 290.8,58.8 296.1,67.3 301.4,86.8 306.7,66.9 312.0,68.3 317.3,45.3 322.7,41.0 328.0,40.0 333.3,46.0 338.6,60.2 343.9,62.3 349.2,65.8 354.5,66.6 359.8,94.6 365.1,71.9 370.5,60.9 375.8,93.8 381.1,59.8 386.4,63.0 391.7,98.8 397.0,70.8 402.3,95.6 407.6,62.3 412.9,63.4 418.3,61.2 423.6,59.8 428.9,85.7 434.2,59.5 439.5,62.7 444.8,89.9 450.1,61.6 455.4,59.1 460.7,61.6 466.1,63.0 471.4,78.3 476.7,64.4 482.0,57.7 487.3,60.2 492.6,49.5 497.9,48.8 503.2,68.0 508.5,74.7 513.8,85.3 519.2,60.9 524.5,87.1 529.8,66.9 535.1,47.1 540.4,38.9 545.7,64.4 551.0,40.0 556.3,45.3 561.6,44.6 567.0,66.6 572.3,65.8 577.6,63.0 582.9,63.0 588.2,60.9 593.5,58.1 598.8,77.5 604.1,79.7 609.4,65.5 614.8,54.2 620.1,55.9 625.4,58.4 630.7,66.2 636.0,58.4"/>
<polyline fill="none" stroke="#3fbf6f" stroke-width="2" points="4.0,84.3 9.3,84.3 14.6,86.4 19.9,84.3 25.2,51.0 30.6,54.5 35.9,44.9 41.2,55.2 46.5,18.0 51.8,94.9 57.1,56.3 62.4,90.3 67.7,67.3 73.0,90.3 78.4,93.8 83.7,68.0 89.0,92.8 94.3,87.5 99.6,81.1 104.9,89.9 110.2,92.1 115.5,96.7 120.8,93.8 126.2,101.6 131.5,102.0 136.8,102.0 142.1,102.0 147.4,102.0 152.7,102.0 158.0,102.0 163.3,102.0 168.6,102.0 173.9,102.0 179.3,101.6 184.6,102.0 189.9,102.0 195.2,102.0 200.5,102.0 205.8,102.0 211.1,102.0 216.4,102.0 221.7,102.0 227.1,101.6 232.4,100.9 237.7,101.3 243.0,101.6 248.3,102.0 253.6,101.3 258.9,102.0 264.2,101.3 269.5,102.0 274.9,101.6 280.2,102.0 285.5,102.0 290.8,102.0 296.1,102.0 301.4,102.0 306.7,102.0 312.0,102.0 317.3,100.9 322.7,99.5 328.0,102.0 333.3,102.0 338.6,102.0 343.9,102.0 349.2,102.0 354.5,102.0 359.8,102.0 365.1,102.0 370.5,102.0 375.8,102.0 381.1,101.6 386.4,101.6 391.7,102.0 397.0,102.0 402.3,102.0 407.6,102.0 412.9,102.0 418.3,102.0 423.6,102.0 428.9,102.0 434.2,102.0 439.5,102.0 444.8,102.0 450.1,102.0 455.4,102.0 460.7,102.0 466.1,102.0 471.4,102.0 476.7,102.0 482.0,102.0 487.3,102.0 492.6,102.0 497.9,102.0 503.2,102.0 508.5,102.0 513.8,102.0 519.2,102.0 524.5,102.0 529.8,102.0 535.1,102.0 540.4,101.6 545.7,102.0 551.0,102.0 556.3,101.6 561.6,102.0 567.0,102.0 572.3,102.0 577.6,102.0 582.9,102.0 588.2,102.0 593.5,102.0 598.8,102.0 604.1,102.0 609.4,102.0 614.8,102.0 620.1,102.0 625.4,101.6 630.7,101.6 636.0,102.0"/>
<text x="8" y="12" fill="#5b8def" font-size="10" font-family="monospace">blacklist: 123</text>
<text x="156" y="12" fill="#3fbf6f" font-size="10" font-family="monospace">whitelist: 0</text>
<text x="636" y="12" fill="#8b949e" font-size="10" text-anchor="end" font-family="monospace">max 237</text>
</svg>