<svg xmlns="http://www.w3.org/2000/svg" width="640" height="120" viewBox="0 0 640 120" role="img" aria-label="Alive configs trend">
<rect width="640" height="120" fill="#0d1117"/>
<polyline fill="none" stroke="#5b8def" stroke-width="2" points="4.0,88.9 14.9,71.9 25.8,60.5 36.7,92.8 47.6,88.9 58.5,88.2 69.4,92.8 80.3,85.7 91.2,93.5 102.1,92.8 113.0,70.8 123.9,86.8 134.8,93.1 145.7,91.7 156.6,86.1 167.4,86.8 178.3,96.7 189.2,95.3 200.1,89.6 211.0,93.5 221.9,94.2 232.8,62.7 243.7,62.7 254.6,66.2 265.5,95.3 276.4,88.2 287.3,63.7 298.2,58.8 309.1,58.4 320.0,61.6 330.9,65.8 341.8,86.4 352.7,61.2 363.6,86.1 374.5,81.8 385.4,81.1 396.3,70.5 407.2,43.9 418.1,93.8 429.0,76.8 439.9,57.7 450.8,59.5 461.7,79.7 472.6,80.0 483.4,79.0 494.3,80.4 505.2,52.7 516.1,53.4 527.0,49.9 537.9,58.1 548.8,27.9 559.7,93.1 570.6,59.8 581.5,89.9 592.4,55.9 603.3,87.8 614.2,90.3 625.1,69.0 636.0,89.6"/>
<polyline fill="none" stroke="#3fbf6f" stroke-width="2" points="4.0,88.2 14.9,74.4 25.8,76.5 36.7,91.4 47.6,91.4 58.5,89.6 69.4,97.4 80.3,90.3 91.2,97.4 102.1,93.5 113.0,74.0 123.9,91.4 134.8,93.1 145.7,90.3 156.6,87.8 167.4,89.2 178.3,98.5 189.2,95.6 200.1,92.1 211.0,99.5 221.9,97.4 232.8,50.3 243.7,68.3 254.6,73.6 265.5,96.0 276.4,85.3 287.3,62.3 298.2,57.0 309.1,42.8 320.0,56.6 330.9,65.1 341.8,88.2 352.7,55.2 363.6,83.6 374.5,84.6 385.4,81.4 396.3,75.4 407.2,59.8 418.1,93.1 429.0,81.1 439.9,59.8 450.8,54.9 461.7,84.3 472.6,84.3 483.4,86.4 494.3,84.3 505.2,51.0 516.1,54.5 527.0,44.9 537.9,55.2 548.8,18.0 559.7,94.9 570.6,56.3 581.5,90.3 592.4,67.3 603.3,90.3 614.2,93.8 625.1,68.0 636.0,92.8"/>
<text x="8" y="12" fill="#5b8def" font-size="10" font-family="monospace">blacklist: 35</text>
<text x="146" y="12" fill="#3fbf6f" font-size="10" font-family="monospace">whitelist: 26</text>
<text x="636" y="12" fill="#8b949e" font-size="10" text-anchor="end" font-family="monospace">max 237</text>
</svg>