<svg xmlns="http://www.w3.org/2000/svg" width="640" height="120" viewBox="0 0 640 120" role="img" aria-label="Alive configs trend">
<rect width="640" height="120" fill="#0d1117"/>
<polyline fill="none" stroke="#5b8def" stroke-width="2" points="4.0,93.8 9.3,87.2 14.6,87.2 19.9,100.4 25.2,87.2 30.6,88.8 35.9,85.5 41.2,88.8 46.5,85.5 51.8,95.4 57.1,85.5 62.4,85.5 67.7,102.0 73.0,85.5 78.4,100.4 83.7,85.5 89.0,77.3 94.3,80.6 99.6,80.6 104.9,100.4 110.2,80.6 115.5,102.0 120.8,102.0 126.2,100.4 131.5,82.2 136.8,83.9 142.1,102.0 147.4,102.0 152.7,102.0 158.0,102.0 163.3,102.0 168.6,102.0 173.9,102.0 179.3,87.2 184.6,102.0 189.9,98.7 195.2,102.0 200.5,102.0 205.8,88.8 211.1,102.0 216.4,100.4 221.7,102.0 227.1,100.4 232.4,102.0 237.7,102.0 243.0,92.1 248.3,102.0 253.6,100.4 258.9,102.0 264.2,102.0 269.5,100.4 274.9,102.0 280.2,97.1 285.5,102.0 290.8,100.4 296.1,102.0 301.4,95.4 306.7,102.0 312.0,93.8 317.3,102.0 322.7,83.9 328.0,93.8 333.3,88.8 338.6,92.1 343.9,85.5 349.2,90.5 354.5,93.8 359.8,102.0 365.1,90.5 370.5,102.0 375.8,100.4 381.1,102.0 386.4,100.4 391.7,102.0 397.0,93.8 402.3,102.0 407.6,102.0 412.9,102.0 418.3,102.0 423.6,100.4 428.9,102.0 434.2,98.7 439.5,102.0 444.8,102.0 450.1,102.0 455.4,102.0 460.7,95.4 466.1,102.0 471.4,102.0 476.7,102.0 482.0,102.0 487.3,102.0 492.6,102.0 497.9,102.0 503.2,100.4 508.5,102.0 513.8,102.0 519.2,100.4 524.5,102.0 529.8,102.0 535.1,102.0 540.4,100.4 545.7,102.0 551.0,102.0 556.3,102.0 561.6,102.0 567.0,102.0 572.3,102.0 577.6,102.0 582.9,102.0 588.2,102.0 593.5,102.0 598.8,102.0 604.1,100.4 609.4,102.0 614.8,102.0 620.1,102.0 625.4,100.4 630.7,102.0 636.0,102.0"/>
<polyline fill="none" stroke="#3fbf6f" stroke-width="2" points="4.0,95.4 9.3,93.8 14.6,95.4 19.9,97.1 25.2,95.4 30.6,92.1 35.9,102.0 41.2,93.8 46.5,102.0 51.8,50.9 57.1,100.4 62.4,90.5 67.7,90.5 73.0,102.0 78.4,85.5 83.7,92.1 89.0,69.1 94.3,100.4 99.6,100.4 104.9,85.5 110.2,100.4 115.5,87.2 120.8,100.4 126.2,78.9 131.5,90.5 136.8,88.8 142.1,78.9 147.4,93.8 152.7,92.1 158.0,80.6 163.3,90.5 168.6,74.0 173.9,83.9 179.3,60.8 184.6,90.5 189.9,57.5 195.2,83.9 200.5,88.8 205.8,60.8 211.1,82.2 216.4,62.5 221.7,92.1 227.1,72.4 232.4,78.9 237.7,92.1 243.0,92.1 248.3,97.1 253.6,85.5 258.9,98.7 264.2,97.1 269.5,82.2 274.9,93.8 280.2,93.8 285.5,100.4 290.8,72.4 296.1,95.4 301.4,18.0 306.7,55.9 312.0,59.2 317.3,80.6 322.7,67.4 328.0,85.5 333.3,34.5 338.6,85.5 343.9,37.8 349.2,62.5 354.5,92.1 359.8,72.4 365.1,93.8 370.5,70.7 375.8,93.8 381.1,92.1 386.4,80.6 391.7,87.2 397.0,85.5 402.3,93.8 407.6,52.6 412.9,88.8 418.3,87.2 423.6,52.6 428.9,78.9 434.2,36.1 439.5,77.3 444.8,97.1 450.1,70.7 455.4,93.8 460.7,60.8 466.1,93.8 471.4,52.6 476.7,77.3 482.0,54.2 487.3,83.9 492.6,70.7 497.9,88.8 503.2,46.0 508.5,78.9 513.8,80.6 519.2,64.1 524.5,92.1 529.8,65.8 535.1,95.4 540.4,70.7 545.7,98.7 551.0,83.9 556.3,95.4 561.6,97.1 567.0,62.5 572.3,83.9 577.6,77.3 582.9,92.1 588.2,92.1 593.5,95.4 598.8,93.8 604.1,87.2 609.4,95.4 614.8,83.9 620.1,95.4 625.4,75.6 630.7,90.5 636.0,87.2"/>
<text x="8" y="12" fill="#5b8def" font-size="10" font-family="monospace">blacklist: 0</text>
<text x="136" y="12" fill="#3fbf6f" font-size="10" font-family="monospace">whitelist: 9</text>
<text x="636" y="12" fill="#8b949e" font-size="10" text-anchor="end" font-family="monospace">max 51</text>
</svg>